<svg version="1.2" baseProfile="tiny-ps" xmlns="http://www.w3.org/2000/svg" viewBox="0 0 1426 1234" width="300" height="260">
	<title>30718-ai</title>
	<style>
		tspan { white-space:pre }
		.shp0 { fill: #fefbf3 } 
		.shp1 { mix-blend-mode: multiply;fill: #bed1cd } 
		.shp2 { fill: #72a1bf } 
		.shp3 { mix-blend-mode: multiply;fill: #cce3f0 } 
		.shp4 { fill: #93bad1 } 
		.shp5 { mix-blend-mode: multiply;fill: #fafdff } 
		.shp6 { fill: #a5c5db } 
		.shp7 { fill: #d5e1dd } 
		.shp8 { fill: #d5eaf5 } 
		.shp9 { fill: #d7ecf6 } 
		.shp10 { fill: #e8f8ff } 
		.shp11 { fill: #c2dded } 
		.shp12 { fill: #a4cbe4 } 
		.shp13 { mix-blend-mode: multiply;fill: #fbfbfb } 
		.shp14 { mix-blend-mode: multiply;fill: #ccd4d3 } 
		.shp15 { fill: #f0ece6 } 
		.shp16 { fill: #d5cdc2 } 
		.shp17 { fill: #756f66 } 
		.shp18 { fill: #888076 } 
		.shp19 { fill: #aaa59c } 
		.shp20 { fill: #a79d91 } 
		.shp21 { fill: #999085 } 
		.shp22 { fill: #e8dfd3 } 
		.shp23 { fill: #e0d8cc } 
		.shp24 { fill: #c7c0b3 } 
		.shp25 { fill: #eae3d7 } 
		.shp26 { fill: #f6ecde } 
		.shp27 { fill: #f7f0e5 } 
		.shp28 { fill: #fbf4f5 } 
		.shp29 { fill: #fbf6ef } 
		.shp30 { fill: #c9c3b8 } 
		.shp31 { fill: #b6ae9f } 
	</style>
	<g id="Layer 1">
		<path id="&lt;Path&gt;" class="shp0" d="M1121.11 943.52C906.85 1067.22 558.38 1066.59 342.78 942.12C127.18 817.64 126.09 616.45 340.35 492.75C554.6 369.05 903.07 369.68 1118.67 494.16C1334.27 618.64 1335.36 819.82 1121.11 943.52Z" />
		<g id="&lt;Group&gt;">
			<g id="&lt;Group&gt;">
				<path id="&lt;Path&gt;" class="shp1" d="M919.55 859.06L926.41 870.28L911.31 877.86L892.32 880.93L876.4 870.28L883.32 859.82L901.4 855.77L919.55 859.06Z" />
				<g id="&lt;Group&gt;">
					<g id="&lt;Group&gt;">
						<path id="&lt;Path&gt;" class="shp2" d="M906.5 870.28L891.21 841.04L908.72 835.85L906.5 870.28Z" />
						<path id="&lt;Path&gt;" class="shp2" d="M906.5 870.28L894 854.58L914.3 862.94L906.5 870.28Z" />
						<path id="&lt;Path&gt;" class="shp3" d="M894 854.58L892.1 841.25L906.5 870.28L894 854.58Z" />
						<path id="&lt;Path&gt;" class="shp4" d="M931.81 857.76L906.5 870.28L914.3 862.94L931.81 857.76Z" />
						<path id="&lt;Path&gt;" class="shp5" d="M929.02 844.21L931.81 857.76L906.5 870.28L929.02 844.21Z" />
						<path id="&lt;Path&gt;" class="shp6" d="M929.02 844.21L906.5 870.28L908.72 835.85L929.02 844.21Z" />
					</g>
					<path id="&lt;Path&gt;" class="shp7" d="M928.42 846.7L931.81 857.76L914.3 862.94L894 854.58L891.21 841.04L908.12 838.34L928.42 846.7Z" />
					<path id="&lt;Path&gt;" class="shp8" d="M935.13 833.1L938.52 849.52L917.29 855.81L892.69 845.68L889.3 829.25L910.53 822.97L935.13 833.1Z" />
					<path id="&lt;Path&gt;" class="shp9" d="M929.88 829.01L932.19 840.23L917.68 844.53L900.86 837.61L898.55 826.38L913.06 822.08L929.88 829.01Z" />
					<path id="&lt;Path&gt;" class="shp10" d="M929 828.79L931.19 839.4L917.47 843.47L901.56 836.92L899.37 826.3L913.1 822.23L929 828.79Z" />
					<path id="&lt;Path&gt;" class="shp11" d="M938.52 849.52L931.81 857.76L914.3 862.94L917.29 855.81L938.52 849.52Z" />
					<path id="&lt;Path&gt;" class="shp11" d="M917.68 844.53L917.29 855.81L892.69 845.68L900.86 837.61L917.68 844.53Z" />
					<path id="&lt;Path&gt;" class="shp8" d="M938.52 849.52L917.29 855.81L917.68 844.53L932.19 840.23L938.52 849.52Z" />
					<path id="&lt;Path&gt;" class="shp11" d="M929.88 829.01L935.13 833.1L938.52 849.52L932.19 840.23L929.88 829.01Z" />
					<path id="&lt;Path&gt;" class="shp12" d="M900.86 837.61L892.69 845.68L889.3 829.25L898.55 826.38L900.86 837.61Z" />
					<path id="&lt;Path&gt;" class="shp12" d="M917.68 844.53L905.3 850.87L900.86 837.61L917.68 844.53Z" />
					<path id="&lt;Path&gt;" class="shp11" d="M932.19 840.23L928.4 852.52L917.68 844.53L932.19 840.23Z" />
					<path id="&lt;Path&gt;" class="shp8" d="M938.52 849.52L931.06 834.71L935.13 833.1L938.52 849.52Z" />
					<path id="&lt;Path&gt;" class="shp11" d="M900.86 837.61L890.74 836.22L898.55 826.38L900.86 837.61Z" />
					<path id="&lt;Path&gt;" class="shp12" d="M917.29 855.81L914.3 862.94L894 854.58L892.69 845.68L917.29 855.81Z" />
					<path id="&lt;Path&gt;" class="shp2" d="M892.69 845.68L894 854.58L891.21 841.04L889.3 829.25L892.69 845.68Z" />
					<path id="&lt;Path&gt;" class="shp3" d="M914.3 862.94L894 854.58L905.3 850.87L914.3 862.94Z" />
					<path id="&lt;Path&gt;" class="shp12" d="M914.3 862.94L928.4 852.52L931.81 857.76L914.3 862.94Z" />
					<path id="&lt;Path&gt;" class="shp13" d="M937.5 849.31L917.11 855.35L893.48 845.61L890.23 829.84L910.62 823.8L934.25 833.53L937.5 849.31Z" />
				</g>
			</g>
			<g id="&lt;Group&gt;">
				<path id="&lt;Path&gt;" class="shp14" d="M354.6 707.2L720.03 496.22L1047.78 685.45L682.35 896.43L354.6 707.2Z" />
				<path id="&lt;Path&gt;" class="shp15" d="M682.35 854.4L427.39 707.2L720.03 538.24L974.99 685.45L682.35 854.4Z" />
				<path id="&lt;Path&gt;" class="shp16" d="M682.35 490.03L974.99 321.07L974.99 686.25L682.35 855.2L682.35 490.03Z" />
				<g id="&lt;Group&gt;">
					<path id="&lt;Path&gt;" class="shp17" d="M942.99 379.38L942.99 664.91L764.81 767.79L717.05 795.37L714.36 796.92L714.36 511.37L748.49 491.67L750.2 490.68L820.7 449.98L868.86 422.17L899.6 404.44L942.06 379.91L942.99 379.38Z" />
				</g>
				<path id="&lt;Path&gt;" class="shp18" d="M764.81 808.86L714.36 794.61L714.36 527.08L764.81 541.33L764.81 808.86Z" />
				<path id="&lt;Path&gt;" class="shp19" d="M899.6 404.44L764.81 541.32L714.36 527.09L750.2 490.68L820.7 449.98L868.86 422.17L899.6 404.44Z" />
				<path id="&lt;Path&gt;" class="shp20" d="M682.35 855.2L427.39 708L427.39 342.82L682.35 490.03L682.35 855.2Z" />
				<path id="&lt;Path&gt;" class="shp20" d="M781.56 840.76L727.71 825.55L727.71 540.01L781.56 555.22L781.56 840.76Z" />
				<path id="&lt;Path&gt;" class="shp21" d="M781.56 840.76L727.71 825.55L727.71 540.01L732.34 541.32L732.34 822.87L781.56 837.32L781.56 840.76Z" />
				<path id="&lt;Path&gt;" class="shp15" d="M950.58 383.54L781.56 555.21L727.71 540.01L796.78 469.86L810.63 455.78L940.63 380.73L940.76 380.76L950.58 383.54Z" />
				<path id="&lt;Path&gt;" class="shp15" d="M975 321.08L852.42 391.84L754.78 448.22L682.36 490.02L657.1 475.44L534.12 404.44L427.4 342.82L534.12 281.2L657.1 210.2L720.04 173.86L754.78 193.92L852.42 250.3L975 321.08Z" />
				<path id="&lt;Path&gt;" class="shp22" d="M974.99 321.07L682.35 490.03L427.39 342.82L531.35 282.8L437.87 342.82L682.35 481.05L962.97 321.07L720.03 173.87L974.99 321.07Z" />
				<g id="&lt;Group&gt;">
					<path id="&lt;Path&gt;" class="shp22" d="M781.56 555.22L950.58 383.54L950.58 669.09L781.56 840.76L781.56 555.22Z" />
					<path id="&lt;Path&gt;" class="shp23" d="M784.89 557.27L950.49 389.07L950.49 669.12L784.89 837.32L784.89 557.27Z" />
				</g>
				<g id="&lt;Group&gt;">
					<g id="&lt;Group&gt;">
						<path id="&lt;Path&gt;" class="shp24" d="M858.46 601.91C867.2 592.48 874.29 596.32 874.29 610.48C874.29 624.64 867.2 643.77 858.46 653.2C849.71 662.63 842.62 658.8 842.62 644.63C842.62 630.47 849.71 611.34 858.46 601.91Z" />
						<path id="&lt;Path&gt;" class="shp24" d="M869.43 597.24L879.27 602.18L863.77 659.93L852.76 654.21L869.43 597.24Z" />
						<g id="&lt;Group&gt;">
							<path id="&lt;Path&gt;" class="shp24" d="M820.53 715.97L848.42 656.28C848.98 655.1 849.86 654.28 850.78 654.09C851.94 653.86 852.97 654.49 853.52 655.75L853.63 655.99C854.09 657.05 854.07 658.5 853.56 659.8L829.6 721.91L820.53 715.97Z" />
							<path id="&lt;Path&gt;" class="shp24" d="M876.16 554.89L864.92 601C864.71 601.89 864.28 602.71 863.73 603.31L862.43 604.73C861.49 605.76 860.31 606.03 859.44 605.41C858.58 604.8 858.17 603.46 858.4 601.97L865.53 553.98L876.16 554.89Z" />
							<g id="&lt;Group&gt;">
								<path id="&lt;Compound Path&gt;" fill-rule="evenodd" class="shp24" d="M843.96 742.11C837.67 743.77 831.8 743.2 826.58 740.32C814.32 733.56 807.56 715.1 807.56 688.36C807.56 663.39 813.49 633.64 824.26 604.59C835.03 575.55 849.44 550.4 864.84 533.79C881.46 515.86 897.42 509.74 909.78 516.55C922.04 523.31 928.8 541.77 928.8 568.51C928.8 593.48 922.87 623.23 912.1 652.28C901.34 681.32 886.92 706.47 871.52 723.08C861.92 733.43 852.55 739.85 843.96 742.11ZM892.36 533.66C886.13 535.3 879.03 540.27 871.52 548.37C843.63 578.45 820.93 639.67 820.93 684.84C820.93 704.56 825.31 717.83 833.26 722.22C841.31 726.65 852.52 721.78 864.84 708.5C892.74 678.42 915.43 617.19 915.43 572.03C915.43 552.31 911.05 539.04 903.1 534.65C899.96 532.92 896.34 532.61 892.36 533.66Z" />
							</g>
							<path id="&lt;Path&gt;" class="shp24" d="M914.97 621.47C914.69 626.53 913.25 631.63 910.88 635.98L865.9 633.23L866.98 624.53L915 620.91L914.97 621.47Z" />
							<path id="&lt;Path&gt;" class="shp24" d="M868.18 606.8C876.93 597.37 884.01 601.2 884.01 615.37C884.01 629.53 876.93 648.66 868.18 658.09C859.44 667.52 852.35 663.68 852.35 649.52C852.35 635.35 859.44 616.23 868.18 606.8Z" />
							<path id="&lt;Path&gt;" class="shp24" d="M868.84 610.36C876.85 601.72 883.35 605.23 883.35 618.22C883.35 631.2 876.85 648.73 868.84 657.38C860.82 666.02 854.32 662.51 854.32 649.52C854.32 636.54 860.82 619.01 868.84 610.36Z" />
						</g>
					</g>
					<g id="&lt;Group&gt;">
						<path id="&lt;Path&gt;" class="shp25" d="M869.8 581.2C880.14 570.63 888.52 575.07 888.52 591.11C888.52 607.16 880.14 628.74 869.8 639.31C859.47 649.88 851.09 645.45 851.09 629.4C851.09 613.35 859.47 591.77 869.8 581.2Z" />
						<path id="&lt;Path&gt;" class="shp25" d="M882.78 576.05L899.3 580.08L873.31 648.47L855.41 643.55L882.78 576.05Z" />
						<g id="&lt;Group&gt;">
							<path id="&lt;Path&gt;" class="shp26" d="M836.05 706.53L859.74 640.49C860.34 639.13 861.35 638.15 862.43 637.89C863.79 637.56 865.05 638.21 865.76 639.6L865.9 639.87C866.5 641.04 866.54 642.67 866.01 644.16L847.09 712.7L836.05 706.53Z" />
							<path id="&lt;Path&gt;" class="shp26" d="M899.31 522.55L884.68 578.56C884.52 579.59 884.11 580.56 883.53 581.32L882.15 583.1C881.15 584.39 879.78 584.86 878.67 584.3C877.59 583.75 876.96 582.31 877.06 580.62L886.61 523.11L899.31 522.55Z" />
							<g id="&lt;Group&gt;">
								<path id="&lt;Compound Path&gt;" fill-rule="evenodd" class="shp26" d="M860.75 732.16C856.14 732.16 852.39 731.17 849.62 730.04C833.52 723.47 824.65 703.38 824.65 673.46C824.65 620.3 851.58 551.13 885.95 515.98C909.83 491.55 927.75 493.75 936.29 497.23C952.4 503.8 961.27 523.89 961.27 553.81C961.27 606.97 934.34 676.15 899.97 711.3C883.81 727.82 870.39 732.16 860.75 732.16ZM925.09 514.69C918.46 514.69 909.43 520.02 899.97 529.69C869.25 561.1 844.26 625.6 844.26 673.46C844.26 697.95 850.86 709.36 857.03 711.88C863.73 714.61 874.53 709.26 885.95 697.59C916.67 666.17 941.66 601.67 941.66 553.81C941.66 529.32 935.06 517.91 928.89 515.39C927.74 514.92 926.47 514.69 925.09 514.69Z" />
							</g>
							<path id="&lt;Path&gt;" class="shp26" d="M941.58 598.48C941.24 604.21 939.54 609.97 936.74 614.86L877.09 614.04L878.37 604.2L941.62 597.85L941.58 598.48Z" />
							<path id="&lt;Path&gt;" class="shp27" d="M886.19 585.17C896.53 574.59 904.91 579.03 904.91 595.08C904.91 611.13 896.53 632.71 886.19 643.28C875.85 653.85 867.47 649.41 867.47 633.37C867.47 617.32 875.85 595.74 886.19 585.17Z" />
							<path id="&lt;Path&gt;" class="shp28" d="M886.97 589.21C896.44 579.52 904.13 583.59 904.13 598.3C904.13 613.01 896.44 632.79 886.97 642.49C877.49 652.18 869.8 648.11 869.8 633.4C869.8 618.69 877.49 598.91 886.97 589.21Z" />
						</g>
						<path id="&lt;Path&gt;" class="shp29" d="M890.88 704.59C900.3 692.58 908.16 679.72 915.12 666.36C922.08 653.01 928.03 639.14 933.12 624.95L936.77 614.25L939.99 603.41C940.93 599.77 941.98 596.14 942.84 592.46C943.59 588.77 944.55 585.11 945.15 581.39C945.74 577.66 946.53 573.96 946.88 570.2L947.54 564.58C947.75 562.7 947.78 560.82 947.93 558.93C948.55 551.39 948.56 543.85 948.21 536.21L948.45 536.17C949.5 539.86 950.15 543.67 950.58 547.5C951.07 551.33 951.16 555.18 951.12 559.03C951.1 560.95 951.15 562.89 951.05 564.81L950.69 570.57C950.55 574.43 949.95 578.24 949.56 582.07C949.15 585.91 948.39 589.68 947.82 593.49C947.15 597.29 946.29 601.04 945.53 604.82C944.67 608.58 943.61 612.29 942.65 616.02L939.25 627.08C934.34 641.69 928.06 655.87 920.29 669.22C912.48 682.49 903.14 695.11 891.46 705.16L890.88 704.59Z" />
						<path id="&lt;Path&gt;" class="shp29" d="M911.34 508.18C903.92 512.28 897.76 518.07 892.19 524.26C886.75 530.6 881.7 537.23 877.23 544.29C868.16 558.28 860.91 573.41 854.62 588.85C848.49 604.37 843.24 620.27 839.63 636.57C838.75 640.64 837.75 644.71 837.12 648.83L836.02 655L835.2 661.21C834.16 669.5 833.47 677.87 833.63 686.31L832.91 686.38C832.12 682.2 831.64 677.96 831.39 673.7L831.25 667.31L831.18 664.1L831.32 660.9L831.63 654.5C831.8 652.37 832.02 650.25 832.26 648.13C832.65 643.86 833.42 639.67 834.08 635.44C837.08 618.61 842.13 602.19 848.7 586.44L851.19 580.54L853.9 574.73C855.63 570.83 857.75 567.11 859.72 563.32C861.72 559.55 864 555.92 866.14 552.23L869.7 546.89C870.87 545.11 872.06 543.33 873.37 541.64L877.2 536.5C878.53 534.82 879.97 533.22 881.34 531.59C884.03 528.27 887.17 525.31 890.15 522.27C896.4 516.47 903.37 511.17 911.34 508.18Z" />
					</g>
				</g>
				<path id="&lt;Path&gt;" class="shp20" d="M942.99 379.38L940.76 380.76L796.78 469.86L810.63 455.78L940.63 380.73L942.99 379.38Z" />
				<path id="&lt;Path&gt;" class="shp23" d="M769.87 667.49C769.87 676.62 762.47 682.1 753.35 679.73C744.23 677.37 736.83 668.06 736.83 658.94C736.83 649.81 744.23 644.33 753.35 646.7C762.47 649.06 769.87 658.37 769.87 667.49Z" />
				<path id="&lt;Path&gt;" class="shp23" d="M766.1 677.02L742.65 700.8L717.32 673.06L740.49 649.52L766.1 677.02Z" />
				<path id="&lt;Path&gt;" class="shp23" d="M769.87 714.57C769.87 723.7 762.47 729.18 753.35 726.81C744.23 724.45 736.83 715.14 736.83 706.02C736.83 696.89 744.23 691.41 753.35 693.78C762.47 696.14 769.87 705.45 769.87 714.57Z" />
				<path id="&lt;Path&gt;" class="shp23" d="M766.1 724.1L742.72 747.81L717.59 719.88L740.6 696.49L766.1 724.1Z" />
				<path id="&lt;Path&gt;" class="shp26" d="M760.69 709.7L745.27 727.36C744.37 724.72 742.48 722.47 739.59 720.62L754.63 703.41C757.56 704.43 759.57 706.52 760.69 709.7Z" />
				<path id="&lt;Path&gt;" class="shp30" d="M746.73 691C746.73 700.12 739.33 705.6 730.21 703.24C721.08 700.88 713.69 691.57 713.69 682.44C713.69 673.32 721.08 667.84 730.21 670.2C739.33 672.57 746.73 681.88 746.73 691Z" />
				<path id="&lt;Path&gt;" class="shp31" d="M744.52 691.85C744.52 700.37 737.62 705.48 729.1 703.28C720.59 701.07 713.69 692.38 713.69 683.87C713.69 675.36 720.59 670.24 729.1 672.45C737.62 674.65 744.52 683.34 744.52 691.85Z" />
				<path id="&lt;Path&gt;" class="shp30" d="M746.73 738.08C746.73 747.2 739.33 752.68 730.21 750.32C721.08 747.96 713.69 738.65 713.69 729.52C713.69 720.4 721.08 714.92 730.21 717.28C739.33 719.65 746.73 728.96 746.73 738.08Z" />
				<path id="&lt;Path&gt;" class="shp31" d="M744.52 738.93C744.52 747.45 737.62 752.56 729.1 750.36C720.59 748.15 713.69 739.46 713.69 730.95C713.69 722.44 720.59 717.32 729.1 719.53C737.62 721.73 744.52 730.42 744.52 738.93Z" />
				<path id="&lt;Path&gt;" class="shp26" d="M760.69 662.06L745.27 679.72C744.37 677.07 742.48 674.82 739.59 672.98L754.63 655.77C757.56 656.78 759.57 658.88 760.69 662.06Z" />
			</g>
		</g>
	</g>
</svg>